<svg width="20" height="19" viewBox="0 0 20 19" fill="none" xmlns="http://www.w3.org/2000/svg">
<path fill-rule="evenodd" clip-rule="evenodd" d="M18.25 0.5H1.75C0.921573 0.5 0.25 1.17157 0.25 2V17C0.246538 17.584 0.585463 18.1158 1.11625 18.3594C1.31483 18.4516 1.53106 18.4996 1.75 18.5C2.10213 18.4992 2.44258 18.3736 2.71094 18.1456C2.71541 18.1427 2.7195 18.1392 2.72312 18.1353L5.73438 15.5H18.25C19.0784 15.5 19.75 14.8284 19.75 14V2C19.75 1.17157 19.0784 0.5 18.25 0.5ZM18.25 14H5.73438C5.38115 13.9998 5.03919 14.1243 4.76875 14.3516L4.7575 14.3619L1.75 17V2H18.25V14ZM8.875 8C8.875 7.37868 9.37868 6.875 10 6.875C10.6213 6.875 11.125 7.37868 11.125 8C11.125 8.62132 10.6213 9.125 10 9.125C9.37868 9.125 8.875 8.62132 8.875 8ZM4.75 8C4.75 7.37868 5.25368 6.875 5.875 6.875C6.49632 6.875 7 7.37868 7 8C7 8.62132 6.49632 9.125 5.875 9.125C5.25368 9.125 4.75 8.62132 4.75 8ZM13 8C13 7.37868 13.5037 6.875 14.125 6.875C14.7463 6.875 15.25 7.37868 15.25 8C15.25 8.62132 14.7463 9.125 14.125 9.125C13.5037 9.125 13 8.62132 13 8Z" fill="#9CA3AF"/>
</svg>
